<?xml version="1.0" standalone="no"?>
<!DOCTYPE svg PUBLIC "-//W3C//DTD SVG 20010904//EN"
 "http://www.w3.org/TR/2001/REC-SVG-20010904/DTD/svg10.dtd">
<svg version="1.0" xmlns="http://www.w3.org/2000/svg"
 width="1024.000000pt" height="1024.000000pt" viewBox="0 0 1024.000000 1024.000000"
 preserveAspectRatio="xMidYMid meet">
<metadata>
Created by potrace 1.16, written by Peter Selinger 2001-2019
</metadata>
<g transform="translate(0.000000,1024.000000) scale(0.100000,-0.100000)"
fill="#000000" stroke="none">
<path d="M80 8913 c-41 -6 -76 -12 -77 -12 -2 -1 -3 -113 -3 -250 l0 -249 35
-53 c38 -58 41 -81 24 -174 -18 -95 -15 -142 11 -170 18 -19 21 -31 16 -59 -5
-26 -3 -37 10 -44 14 -8 18 -40 26 -203 5 -107 9 -207 8 -223 0 -17 2 -27 5
-24 7 7 55 -39 55 -53 0 -23 32 -69 48 -69 11 0 25 -14 35 -35 23 -48 22 -68
-2 -60 -36 11 -52 -4 -45 -44 8 -44 7 -43 28 -35 9 3 16 14 16 24 0 10 6 23
13 29 15 12 44 -13 66 -56 6 -12 23 -29 39 -38 26 -16 82 -92 82 -112 0 -6 10
-25 23 -44 15 -23 24 -52 26 -88 1 -30 7 -61 11 -70 19 -34 50 -114 50 -128 0
-14 38 -52 52 -53 16 0 77 -66 87 -92 8 -20 17 -28 35 -28 23 0 101 -54 140
-98 25 -28 15 -51 -18 -45 -14 3 -26 1 -27 -3 0 -5 -2 -19 -3 -32 -2 -15 2
-21 10 -18 8 3 15 -9 19 -35 7 -40 28 -52 39 -23 9 22 8 24 -11 25 -15 0 -15
2 2 9 17 7 17 9 3 9 -18 1 -25 26 -10 34 19 11 73 -15 83 -40 5 -14 23 -41 39
-60 17 -19 30 -38 30 -42 0 -18 183 -198 319 -313 33 -28 46 -47 50 -74 8 -47
27 -55 36 -15 3 16 13 32 22 35 22 9 61 -19 85 -60 11 -19 23 -34 28 -34 18 0
96 -91 109 -126 7 -22 20 -54 29 -73 14 -31 14 -35 -2 -47 -16 -11 -15 -14 13
-40 17 -15 31 -36 31 -46 0 -13 8 -18 29 -18 16 0 34 -6 41 -14 13 -16 10 -57
-4 -68 -5 -3 -2 -13 6 -22 9 -9 14 -24 12 -34 -4 -12 1 -18 15 -19 11 -1 33
-11 49 -23 27 -20 28 -25 21 -63 -4 -24 -17 -49 -30 -60 -23 -18 -24 -26 -30
-205 -6 -181 -18 -254 -50 -327 -8 -16 -18 -33 -24 -37 -6 -5 -9 -79 -7 -207
2 -193 2 -200 -18 -206 -25 -8 -26 -21 0 -35 14 -7 20 -21 20 -43 0 -42 -9
-53 -47 -62 l-33 -7 0 190 c0 257 -10 432 -25 432 -22 0 -49 -294 -42 -477 l6
-164 -22 7 c-36 11 -40 10 -52 -13 -8 -15 -15 -19 -22 -12 -7 7 -12 -3 -16
-32 -6 -42 -26 -67 -38 -47 -4 6 -10 -12 -14 -40 -5 -39 -12 -53 -27 -58 -14
-4 -18 -12 -14 -27 3 -12 6 -30 6 -39 0 -10 8 -18 18 -19 11 0 12 -2 4 -6 -27
-11 -62 -55 -62 -78 0 -14 4 -25 9 -25 6 0 9 -9 8 -20 -1 -11 -7 -20 -14 -20
-19 0 -16 -28 4 -32 16 -3 16 -4 0 -20 -9 -9 -17 -24 -17 -34 0 -10 -7 -25
-15 -34 -13 -15 -13 -20 1 -49 18 -37 12 -79 -14 -87 -62 -19 -67 -44 -9 -44
51 0 71 17 82 70 9 44 31 80 50 80 7 0 35 -18 60 -40 42 -36 52 -40 100 -40
48 0 56 -3 75 -30 20 -28 25 -30 86 -28 63 2 67 0 98 -33 60 -62 118 -103 131
-93 66 49 62 48 145 37 74 -10 82 -13 138 -62 49 -43 61 -59 66 -92 5 -34 12
-42 41 -55 l35 -14 0 -117 c0 -109 2 -119 26 -154 34 -50 57 -139 45 -173 -6
-14 -23 -32 -39 -40 -34 -18 -42 -34 -42 -83 0 -28 -8 -43 -39 -72 -22 -20
-46 -52 -55 -71 -21 -50 -38 -68 -78 -85 -21 -8 -44 -29 -56 -49 -12 -20 -31
-38 -44 -41 -13 -2 -103 -9 -202 -14 -145 -8 -193 -7 -260 5 -75 14 -84 19
-123 60 -52 55 -87 58 -126 14 -31 -35 -35 -35 -84 -15 -50 21 -72 42 -94 90
-17 37 -19 74 -19 473 0 271 -4 432 -10 432 -31 0 -35 -46 -41 -490 -3 -245
-6 -446 -7 -447 -1 -2 -11 -3 -21 -3 -32 0 -40 -56 -21 -147 8 -38 15 -49 30
-49 18 0 20 8 20 94 l0 95 21 -27 c11 -14 27 -26 35 -26 23 0 19 -76 -6 -93
-10 -7 -24 -26 -30 -41 -12 -31 -11 -228 0 -221 10 6 20 -20 20 -51 0 -16 4
-22 14 -18 12 5 14 -4 9 -50 -4 -41 -2 -56 6 -56 8 0 12 14 10 40 -2 21 0 42
4 46 8 8 12 -57 9 -123 -2 -23 2 -44 8 -48 5 -3 10 -15 10 -26 0 -25 45 -26
55 -1 4 9 6 76 6 147 -1 145 3 163 37 139 20 -14 22 -23 22 -122 0 -96 -2
-108 -20 -120 -15 -9 -20 -23 -20 -60 0 -26 5 -53 12 -60 9 -9 9 -12 0 -12 -7
0 -12 -15 -12 -37 0 -20 3 -34 6 -30 4 3 23 -2 44 -13 21 -11 40 -16 44 -13 3
4 6 -1 6 -10 0 -9 9 -21 20 -27 11 -6 20 -21 20 -34 0 -26 18 -45 49 -51 16
-3 21 1 23 18 2 36 3 41 18 75 17 36 29 37 47 2 14 -28 7 -50 -16 -50 -14 0
-17 -7 -13 -30 3 -18 -2 -35 -12 -45 -17 -18 -22 -75 -6 -75 6 0 10 -9 10 -19
0 -30 11 -51 26 -51 8 0 15 -8 15 -17 1 -10 5 24 9 75 5 51 10 96 13 99 3 2
18 -1 34 -9 20 -10 29 -22 31 -44 3 -27 -1 -33 -23 -38 -23 -6 -26 -10 -20
-36 4 -18 0 -40 -10 -60 -25 -49 -29 -86 -24 -232 1 -51 -2 -82 -11 -93 -7 -8
-9 -15 -4 -15 5 0 3 -4 -4 -9 -10 -6 -5 -10 16 -14 38 -8 47 -33 28 -78 -9
-22 -11 -41 -5 -56 5 -15 4 -27 -4 -35 -7 -7 -13 -26 -14 -43 -5 -66 -15 -97
-45 -131 -31 -35 -46 -87 -47 -161 l-1 -33 4220 0 4220 0 0 92 c0 50 -7 130
-16 177 -9 47 -14 109 -11 136 2 28 2 42 0 32 -3 -13 -11 -4 -28 30 -46 95
-65 202 -40 223 8 7 15 18 15 26 0 7 7 34 16 60 14 43 14 58 -3 197 -17 142
-18 148 -25 97 -4 -30 -9 -116 -12 -190 -3 -74 -9 -148 -15 -165 -5 -16 -10
-24 -10 -16 -1 8 -7 22 -14 30 -39 46 -56 214 -38 356 15 111 21 136 31 130 4
-3 11 27 15 67 5 50 4 73 -4 76 -6 2 -11 21 -11 43 0 26 -4 39 -14 39 -16 0
-26 -81 -26 -216 0 -56 -4 -94 -10 -94 -5 0 -10 15 -10 34 0 19 -7 42 -16 51
-21 20 -43 115 -44 184 0 30 -3 51 -7 47 -4 -4 -20 19 -36 51 -24 49 -29 75
-34 166 -4 77 -3 107 6 107 6 0 11 9 11 20 0 12 7 31 15 43 22 35 27 346 5
332 -5 -3 -10 0 -10 7 -1 9 -3 8 -10 -2 -5 -9 -12 -100 -16 -203 -4 -103 -11
-190 -15 -193 -4 -2 -13 15 -20 38 -6 24 -14 48 -19 53 -16 22 -30 109 -30
194 0 78 -3 93 -23 118 -36 44 -48 82 -55 163 -3 42 -11 81 -19 88 -7 7 -13
19 -13 26 0 7 -10 26 -22 41 -18 24 -22 42 -23 106 0 42 -2 75 -4 73 -2 -2
-11 7 -20 20 -9 13 -24 35 -35 50 -13 18 -20 51 -23 110 -5 71 -9 88 -30 111
-14 14 -29 40 -34 57 -12 42 -24 185 -14 176 11 -10 35 17 35 40 0 15 -5 19
-20 15 -12 -3 -20 -14 -20 -27 0 -39 -15 -48 -32 -18 -27 46 -51 212 -30 212
8 0 26 56 39 122 6 34 -17 118 -33 118 -14 0 -28 -96 -19 -131 6 -28 -7 -85
-21 -83 -20 4 -44 53 -58 118 -14 68 -12 101 5 91 22 -14 37 43 38 148 2 99 0
107 -17 107 -18 0 -20 -10 -24 -112 -2 -62 -9 -121 -14 -131 -9 -16 -11 -16
-22 8 -6 14 -15 25 -20 25 -35 0 -42 311 -9 375 25 49 40 111 34 142 -3 15
-10 46 -14 67 -20 97 -41 17 -42 -163 -1 -97 -6 -124 -14 -73 -2 11 -11 29
-20 39 -9 10 -23 45 -32 78 -15 59 -21 144 -8 132 11 -11 33 14 33 38 0 59
-26 73 -36 20 -6 -32 -8 -34 -28 -23 -33 17 -36 29 -15 67 10 20 19 43 19 51
0 23 -29 60 -46 60 -28 0 -74 68 -74 108 0 10 -4 22 -10 28 -5 5 -12 41 -15
79 -3 39 -6 84 -8 100 -2 24 2 31 20 33 44 6 65 71 47 140 -10 37 -34 8 -27
-32 4 -26 0 -39 -16 -55 -11 -11 -28 -21 -36 -21 -8 0 -15 -4 -15 -9 0 -10
-66 -8 -118 4 -40 8 -53 46 -27 75 10 11 24 20 30 20 13 0 36 21 114 103 24
26 48 44 52 41 5 -3 9 -1 9 5 0 5 15 14 33 20 19 7 50 33 77 66 45 55 69 73
105 78 11 1 25 6 32 10 6 4 15 2 18 -4 9 -14 44 21 38 38 -3 7 2 16 11 19 9 3
14 10 11 14 -3 4 0 22 6 39 8 22 20 33 42 40 45 12 53 -2 29 -43 -12 -20 -17
-36 -11 -36 6 0 7 -5 3 -11 -4 -7 -1 -10 6 -7 8 2 16 10 18 18 3 7 0 10 -7 6
-6 -4 -11 -2 -11 3 0 6 7 11 16 11 8 0 12 5 9 10 -3 6 -2 10 3 10 19 0 85 69
79 83 -3 9 1 18 9 21 9 4 12 2 8 -5 -4 -7 3 -6 17 2 33 17 50 36 48 51 -1 7 1
21 6 31 4 10 5 21 1 24 -3 4 -6 -2 -6 -13 0 -16 -2 -17 -11 -4 -8 12 -10 9 -6
-13 3 -22 1 -27 -11 -22 -20 7 -75 -54 -68 -77 2 -11 -1 -18 -10 -18 -8 0 -14
-8 -15 -17 0 -10 -3 -13 -5 -7 -3 7 -14 10 -24 7 -42 -11 -33 37 25 132 16 26
34 42 54 48 42 10 151 85 151 102 0 8 8 15 19 15 10 0 35 13 55 29 24 20 54
32 84 36 63 8 75 16 88 56 12 36 32 46 96 48 31 1 38 5 46 31 7 19 23 34 47
44 20 9 39 25 42 35 3 12 21 25 47 33 32 10 42 18 44 38 5 48 13 71 21 66 5
-3 16 3 26 14 14 16 26 19 56 14 l39 -7 0 850 0 851 -29 5 c-32 7 -46 34 -36
67 4 13 18 23 36 27 22 4 29 11 29 29 0 19 -5 24 -24 24 -43 0 -73 -17 -86
-52 -19 -44 -38 -58 -77 -56 -17 1 -40 -5 -50 -13 -44 -39 -165 -52 -213 -24
-62 36 -161 60 -146 36 4 -6 0 -14 -9 -17 -14 -6 -14 -8 4 -20 12 -9 44 -13
86 -13 36 1 68 -1 71 -3 2 -3 -14 -18 -37 -34 -32 -22 -55 -29 -104 -32 -46
-3 -62 -8 -59 -17 7 -17 -77 -65 -115 -65 -16 0 -36 -6 -43 -13 -35 -34 -91
-70 -113 -72 -13 -2 -51 -19 -83 -39 -68 -41 -77 -43 -91 -18 -6 9 -11 13 -11
8 0 -5 -6 -4 -12 1 -27 20 -44 21 -44 2 0 -11 4 -19 9 -19 4 0 5 -5 2 -11 -4
-6 2 -9 17 -8 35 3 58 0 58 -8 -1 -5 -19 -21 -41 -36 -23 -16 -38 -24 -35 -19
3 5 -17 18 -45 30 -58 26 -109 29 -109 7 0 -8 -4 -15 -10 -15 -5 0 -10 -6 -10
-14 0 -17 31 -26 97 -26 62 0 74 -14 41 -47 -18 -17 -41 -27 -82 -32 -49 -7
-61 -13 -87 -44 -29 -35 -34 -37 -90 -37 -46 0 -59 3 -59 15 0 23 -60 56 -95
53 -16 -2 -29 -7 -27 -11 2 -5 -5 -15 -14 -22 -17 -12 -16 -13 4 -24 11 -6 43
-11 71 -11 37 0 51 -4 51 -14 0 -51 -106 -91 -145 -54 -31 30 -119 53 -162 42
-44 -11 -56 -38 -21 -48 13 -3 56 -6 96 -6 39 0 72 -4 72 -8 0 -23 -64 -60
-112 -66 -23 -2 -37 -11 -48 -32 -9 -16 -42 -42 -76 -60 -32 -18 -69 -38 -82
-45 -19 -11 -28 -9 -65 11 -47 27 -105 31 -242 16 -86 -9 -99 -15 -118 -55 -7
-14 -21 -27 -32 -29 -35 -6 -85 -36 -85 -52 1 -13 3 -12 14 2 8 11 20 15 34
12 31 -9 95 15 83 30 -7 8 -6 17 1 26 8 12 9 11 4 -5 -6 -20 -6 -20 9 -1 8 11
15 16 15 10 0 -5 7 -1 14 9 10 13 25 17 60 15 25 -2 46 -6 46 -9 0 -4 6 -7 13
-6 29 1 47 -4 47 -12 0 -9 -48 -30 -84 -38 -11 -2 -25 -8 -33 -14 -7 -6 -13
-8 -13 -4 0 5 -9 0 -20 -10 -11 -10 -20 -14 -20 -9 0 5 -11 -3 -24 -18 -13
-16 -28 -28 -35 -28 -6 0 -11 -4 -11 -8 0 -4 -9 -9 -20 -10 -44 -4 -50 -6 -50
-15 0 -5 -8 -3 -17 4 -15 12 -16 12 -10 -3 3 -10 2 -18 -4 -18 -6 0 -7 -4 -4
-10 4 -6 -1 -7 -11 -3 -12 4 -15 3 -10 -5 4 -7 4 -12 -1 -13 -38 -3 -61 -13
-79 -34 l-22 -25 -16 25 c-9 13 -16 29 -16 35 0 5 -4 10 -10 10 -17 0 -11 52
8 66 23 18 86 19 76 2 -4 -7 -4 -10 0 -7 4 4 22 3 41 -1 19 -4 33 -4 30 0 -3
5 1 11 7 13 10 4 10 6 1 6 -7 1 -11 7 -9 14 1 6 1 9 -1 5 -3 -5 -12 -8 -21 -9
-14 0 -13 -2 3 -9 18 -8 17 -9 -8 -9 -16 -1 -26 3 -23 7 8 13 -91 14 -114 2
-16 -8 -20 -21 -20 -58 0 -55 -6 -67 -40 -77 -14 -4 -41 -18 -60 -31 -21 -14
-59 -25 -96 -29 -58 -7 -61 -6 -78 20 l-18 27 -111 -4 c-62 -3 -125 -11 -142
-18 l-30 -13 25 -7 c14 -5 85 -8 158 -9 l133 -1 -17 -31 -16 -31 -106 4 c-100
5 -214 29 -236 49 -6 5 -555 9 -1285 9 -702 0 -1293 4 -1313 9 -21 5 -38 5
-38 1 0 -5 12 -10 28 -12 22 -2 14 -7 -40 -25 -141 -47 -256 -52 -406 -19 -53
12 -96 15 -158 10 -74 -6 -93 -4 -132 14 -26 11 -66 25 -89 31 -25 7 -52 24
-68 42 -22 27 -37 33 -101 44 -88 16 -105 27 -98 63 4 21 -1 31 -20 46 -14 10
-26 24 -26 31 0 15 -21 25 -65 32 -16 2 -40 11 -53 19 -19 13 -22 21 -17 47 4
21 3 27 -3 18 -7 -9 -12 -10 -16 -2 -4 6 -23 18 -41 25 -22 10 -37 24 -41 41
-10 40 -35 47 -135 39 -87 -6 -89 -6 -89 15 0 12 4 19 10 16 16 -10 12 15 -5
31 -12 12 -15 12 -15 2 0 -9 -2 -10 -8 -1 -4 6 -20 15 -35 18 -19 5 -32 18
-42 41 -8 19 -21 35 -29 35 -9 1 -20 3 -26 4 -5 1 -14 3 -20 4 -5 0 -10 11
-10 24 0 32 -15 50 -42 53 -12 1 -26 3 -30 3 -5 1 -8 11 -8 24 0 33 -12 45
-45 49 -31 3 -32 6 -20 48 4 14 4 22 0 18 -4 -4 -17 -1 -29 7 -11 8 -28 15
-38 15 -11 0 -18 8 -18 20 0 11 -9 29 -21 41 -17 17 -30 20 -80 17 -32 -1 -59
0 -59 5 0 28 2 40 7 30 5 -14 33 -18 33 -5 0 5 -9 17 -20 27 -14 13 -20 14
-20 5 0 -10 -4 -9 -12 3 -7 9 -24 21 -38 26 l-25 10 28 0 c30 1 33 6 15 25
-20 19 -48 27 -48 13 0 -9 -2 -9 -8 1 -5 7 -28 18 -53 26 -33 11 -38 14 -19
15 36 2 70 12 70 21 0 5 -13 3 -29 -3 -22 -8 -39 -8 -65 0 -23 7 -38 8 -42 1
-4 -5 -15 -1 -28 11 -11 11 -33 24 -48 30 -16 6 -28 17 -28 26 0 8 -4 16 -10
16 -5 1 -13 2 -17 4 -51 13 -64 19 -78 35 -16 18 -15 19 17 24 18 3 49 7 68 8
25 2 36 8 38 22 3 15 0 17 -14 12 -17 -7 -35 -10 -114 -21 -14 -1 -24 -8 -22
-14 3 -16 -76 26 -116 60 -18 16 -37 29 -43 29 -6 0 -23 8 -37 19 -15 10 -40
23 -57 29 -26 9 -18 11 53 11 53 1 81 5 77 11 -3 6 -2 10 2 10 5 0 9 9 9 19 0
16 -6 19 -26 15 -14 -3 -32 -6 -40 -8 -8 -1 -26 -9 -40 -18 -33 -22 -126 -22
-160 0 -14 8 -33 26 -43 39 -10 13 -22 21 -25 19 -12 -7 -68 21 -90 44 -17 19
-19 27 -10 44 10 19 10 20 -5 8 -25 -21 -125 2 -138 32 -8 16 -29 28 -67 40
-32 10 -73 30 -92 45 -19 15 -49 33 -67 40 -18 7 -38 19 -44 27 -6 8 -44 29
-84 48 -73 34 -94 56 -71 75 17 14 84 22 92 10 3 -6 12 -2 20 8 11 14 13 15 8
2 -3 -10 2 -19 12 -23 12 -5 15 -2 10 11 -6 16 -6 16 12 0 24 -22 32 -21 32 2
0 15 -10 20 -52 25 -37 5 -53 4 -59 -6 -5 -7 -9 -8 -9 -3 0 6 -10 12 -22 12
-51 4 -68 14 -82 48 -12 27 -21 35 -40 35 -51 0 -75 20 -93 78 -13 41 -26 60
-48 73 -16 10 -35 22 -41 27 -18 16 -104 18 -184 5z m6908 -4369 c17 -12 22
-25 22 -59 0 -63 55 -148 115 -177 58 -29 70 -55 46 -109 -20 -45 -19 -58 13
-102 12 -16 20 -42 19 -63 -1 -30 -10 -44 -47 -79 -25 -23 -46 -49 -46 -57 0
-8 17 -26 38 -39 39 -25 52 -60 32 -85 -9 -9 -33 -14 -74 -14 -47 0 -70 -6
-101 -25 -43 -26 -78 -30 -152 -16 -26 5 -65 12 -86 16 -21 3 -47 15 -59 27
-18 18 -25 19 -58 9 -60 -18 -73 -14 -124 38 -42 42 -51 59 -62 112 -15 74 -6
109 29 109 33 0 51 18 71 71 29 79 89 89 148 24 34 -38 72 -50 111 -36 35 14
34 35 -3 78 l-30 34 6 94 c9 120 5 125 -86 125 -53 0 -69 3 -74 16 -12 32 13
44 95 44 69 0 78 2 84 20 17 54 121 81 173 44z m-3503 -43 c3 -6 -4 -38 -15
-72 -27 -79 -18 -91 44 -58 43 23 46 23 63 6 17 -16 16 -19 -7 -62 -24 -44
-24 -47 -8 -73 9 -15 32 -56 50 -92 30 -61 33 -72 33 -167 0 -91 3 -104 23
-125 26 -29 29 -69 4 -91 -9 -9 -39 -21 -66 -27 -26 -6 -61 -17 -77 -25 -39
-21 -197 -20 -247 0 -20 9 -70 20 -112 26 -100 13 -106 15 -127 48 -10 15 -49
56 -88 91 -38 34 -74 69 -78 77 -12 20 15 57 53 73 22 9 39 27 53 58 41 85
100 103 132 41 9 -16 32 -37 53 -48 20 -10 46 -28 56 -40 22 -24 63 -27 90 -8
14 10 20 34 27 98 4 46 11 99 15 116 8 41 -6 60 -57 73 -25 7 -39 17 -39 27 0
25 109 123 159 143 56 22 58 22 66 11z m-1864 -771 c5 0 9 -24 9 -53 0 -45 -3
-54 -22 -62 -35 -16 -34 -42 1 -50 27 -6 31 -11 31 -41 0 -24 -5 -36 -17 -40
-37 -11 -48 -22 -57 -53 -8 -27 -13 -31 -42 -31 -23 0 -37 6 -44 21 -20 36 -6
49 45 42 l46 -6 -2 130 c-2 134 2 158 28 149 8 -3 19 -6 24 -6z m3159 -290
c10 -5 27 -25 39 -45 25 -43 61 -47 85 -10 21 33 34 32 49 -4 7 -16 25 -39 40
-51 30 -24 37 -70 13 -90 -8 -6 -35 -10 -60 -9 -45 3 -76 -12 -76 -36 0 -22
-93 -125 -113 -125 -17 0 -19 7 -15 58 3 54 2 57 -22 60 -57 7 -79 23 -101 78
-25 60 -50 75 -79 49 -10 -9 -24 -14 -29 -10 -20 12 -11 35 16 46 16 6 35 17
44 25 11 9 24 11 45 6 44 -12 62 -4 74 34 10 29 16 34 41 34 17 0 39 -4 49
-10z m3140 -365 c48 -47 117 -58 160 -26 43 31 50 27 44 -22 -8 -55 7 -68 91
-76 36 -4 70 -12 76 -18 6 -6 13 -30 16 -54 4 -33 13 -51 35 -71 33 -29 47
-76 48 -165 0 -47 3 -54 35 -79 44 -33 45 -60 3 -94 l-32 -27 -5 -123 c-5
-108 -8 -124 -26 -134 -10 -6 -28 -22 -40 -35 -11 -13 -36 -40 -55 -60 -19
-21 -51 -60 -70 -89 -23 -34 -47 -56 -71 -66 -21 -8 -47 -29 -59 -46 -25 -35
-54 -39 -70 -10 -6 11 -35 38 -66 61 l-55 40 -52 -34 c-29 -19 -62 -47 -74
-61 -13 -14 -29 -26 -35 -27 -170 -9 -188 -2 -188 75 0 35 -5 48 -22 60 -31
22 -98 81 -158 139 -34 34 -52 60 -57 85 -4 21 -7 151 -7 290 l-1 254 25 18
c68 51 78 83 38 120 -28 26 -18 35 25 19 52 -19 69 -7 65 43 -3 41 -1 43 32
55 59 20 116 16 159 -13 28 -18 46 -23 65 -18 28 7 66 47 66 70 0 29 39 54 82
54 35 0 49 -6 78 -35z m-3107 -620 c6 -11 13 -27 17 -35 8 -15 14 -15 83 -4
24 4 43 2 53 -7 16 -13 96 -19 323 -22 116 -2 124 -3 140 -25 9 -13 30 -41 48
-63 32 -40 49 -109 41 -174 -4 -42 -40 -46 -65 -8 -25 39 -32 43 -86 43 -40 0
-52 5 -70 26 -12 14 -30 34 -40 43 -10 9 -36 33 -58 54 l-40 37 -104 0 c-57 0
-114 -5 -127 -11 -13 -6 -35 -28 -50 -50 l-28 -39 -120 0 -121 0 -19 -33 c-11
-19 -31 -39 -45 -45 -14 -6 -25 -18 -25 -26 0 -19 46 -29 71 -15 30 16 32 8 9
-47 -17 -41 -29 -54 -63 -69 l-42 -20 -2 -84 -2 -83 34 -31 c31 -27 35 -36 35
-80 0 -48 2 -51 68 -113 37 -35 74 -70 82 -77 8 -7 24 -27 36 -43 l21 -29 72
13 c139 24 186 13 211 -47 6 -16 17 -32 24 -34 7 -3 52 -2 100 2 78 6 89 9
109 33 26 32 64 48 112 48 44 0 59 26 50 87 -6 43 -5 45 44 93 l51 49 0 76 0
76 -35 20 c-44 27 -45 53 -2 75 43 22 47 30 47 90 0 38 5 55 20 69 25 22 25
48 3 87 -18 29 -18 30 6 49 26 21 39 23 61 9 12 -8 14 -31 12 -125 -3 -111 -2
-117 21 -145 34 -40 26 -64 -28 -84 -64 -25 -66 -48 -11 -123 20 -27 23 -43
22 -109 -1 -83 -5 -89 -69 -108 -15 -5 -16 -14 -11 -74 6 -65 5 -69 -18 -84
-14 -9 -39 -30 -56 -47 -34 -35 -26 -34 -302 -35 l-134 -1 -21 -32 c-35 -55
-101 -70 -135 -31 -77 88 -62 81 -159 73 l-88 -7 -26 31 c-28 34 -64 51 -105
51 -15 0 -38 7 -51 16 -20 15 -23 22 -17 59 7 52 -3 63 -76 79 l-53 11 -7 125
c-11 188 -15 207 -52 248 -44 49 -45 54 -47 185 l-2 114 103 101 103 102 128
0 c121 0 128 1 146 23 38 49 87 59 106 22z"/>
<path d="M4453 6801 c-83 -3 -154 -9 -157 -12 -4 -3 28 -9 70 -13 111 -9 2485
-6 2509 3 17 7 14 10 -20 20 -42 11 -2095 13 -2402 2z"/>
<path d="M3865 6724 c-27 -7 -63 -17 -80 -21 l-30 -7 30 -7 c46 -10 398 -10
415 1 20 12 -21 27 -109 40 -91 13 -167 11 -226 -6z"/>
<path d="M1771 5031 c-14 -9 -33 -332 -24 -413 5 -42 9 -48 29 -48 l24 0 -7
233 c-3 127 -6 233 -7 234 -1 1 -7 -2 -15 -6z"/>
<path d="M1116 2944 c-3 -22 -8 -159 -12 -305 -6 -266 5 -468 28 -496 7 -9 7
-13 -1 -13 -6 0 -11 -7 -11 -15 0 -8 6 -15 14 -15 18 0 22 114 19 530 -2 263
-5 327 -17 338 -12 12 -15 9 -20 -24z"/>
<path d="M10126 337 c-3 -33 -6 -122 -6 -198 0 -132 1 -139 20 -139 18 0 20 7
20 61 0 33 5 104 12 156 9 75 9 98 0 101 -7 2 -12 21 -12 41 0 25 -5 38 -14
38 -9 0 -15 -19 -20 -60z"/>
</g>
</svg>
